<svg width="16" height="16" xmlns="http://www.w3.org/2000/svg" clip-rule="evenodd">

 <g>
  <title>background</title>
  <rect fill="none" id="canvas_background" height="402" width="582" y="-1" x="-1"/>
 </g>
 <g>
  <title>Layer 1</title>
  <path fill="#ffffff" id="svg_1" d="m13.487,-0.002c0.936,0 1.693,0.758 1.738,1.65l0,14.35l-1.783,-1.515l-0.98,-0.892l-1.07,-0.93l0.446,1.47l-9.36,0c-0.935,0 -1.693,-0.71 -1.693,-1.65l0,-10.831c0,-0.89 0.758,-1.65 1.695,-1.65l11,0l0.007,-0.002zm-4.087,3.79l-0.02,0l-0.134,0.134c1.382,0.4 2.05,1.025 2.05,1.025c-0.89,-0.446 -1.694,-0.668 -2.496,-0.758c-0.58,-0.09 -1.16,-0.044 -1.65,0l-0.132,0c-0.312,0 -0.98,0.134 -1.872,0.49c-0.312,0.134 -0.49,0.223 -0.49,0.223s0.668,-0.668 2.14,-1.025l-0.09,-0.09s-1.115,-0.043 -2.318,0.848c0,0 -1.203,2.095 -1.203,4.68c0,0 0.668,1.158 2.495,1.203c0,0 0.268,-0.356 0.535,-0.668c-1.025,-0.312 -1.426,-0.936 -1.426,-0.936s0.09,0.044 0.223,0.133l0.04,0c0.02,0 0.03,0.01 0.04,0.02l0,0.005c0.01,0.01 0.02,0.02 0.04,0.02c0.22,0.09 0.44,0.178 0.62,0.267c0.31,0.134 0.71,0.268 1.2,0.357c0.62,0.09 1.33,0.134 2.14,0c0.4,-0.09 0.8,-0.178 1.2,-0.357c0.26,-0.133 0.58,-0.267 0.93,-0.49c0,0 -0.4,0.624 -1.47,0.936c0.22,0.312 0.53,0.668 0.53,0.668c1.83,-0.04 2.54,-1.2 2.58,-1.15c0,-2.58 -1.21,-4.68 -1.21,-4.68c-1.09,-0.81 -2.11,-0.84 -2.29,-0.84l0.038,-0.015zm0.113,2.942c0.468,0 0.847,0.4 0.847,0.89c0,0.493 -0.38,0.892 -0.847,0.892c-0.467,0 -0.846,-0.4 -0.846,-0.89c0,-0.493 0.38,-0.892 0.846,-0.892zm-3.03,0c0.467,0 0.846,0.4 0.846,0.89c0,0.493 -0.38,0.892 -0.846,0.892c-0.468,0 -0.847,-0.4 -0.847,-0.89c0,-0.493 0.38,-0.892 0.847,-0.892z"/>
 </g>
</svg>